<svg width="109.9" рeight="24" viewBox="0 0 87 19" fill="none" xmlns="http://www.w3.org/2000/svg">
<path d="M9.57812 14.5078H4.87891L3.96484 18H0.320312L5.65234 0.9375H8.80469L14.1719 18H10.4922L9.57812 14.5078ZM5.62891 11.6367H8.81641L7.22266 5.55469L5.62891 11.6367ZM27.707 18H24.2617L19.2227 6.80859V18H15.7773V0.9375H19.2227L24.2734 12.1406V0.9375H27.707V18ZM41.1719 3.80859H36.9531V18H33.4961V3.80859H29.3477V0.9375H41.1719V3.80859ZM46.75 18H43.3047V0.9375H46.75V18Z" fill="#EB5757"/>
<path d="M55.2578 0.9375H58.7031V12.75C58.7031 14.4062 58.2422 15.7344 57.3203 16.7344C56.3984 17.7344 55.2109 18.2344 53.7578 18.2344C52.1953 18.2344 50.9805 17.7695 50.1133 16.8398C49.2461 15.9102 48.8125 14.6172 48.8125 12.9609H52.2695C52.2695 14.5703 52.7656 15.375 53.7578 15.375C54.7578 15.375 55.2578 14.4453 55.2578 12.5859V0.9375ZM73.4219 11.0039C73.4219 13.293 72.8789 15.0703 71.793 16.3359C70.7148 17.6016 69.2148 18.2344 67.293 18.2344C65.3789 18.2344 63.875 17.6094 62.7812 16.3594C61.6875 15.1016 61.1328 13.3438 61.1172 11.0859V8.16797C61.1172 5.82422 61.6602 3.99609 62.7461 2.68359C63.832 1.36328 65.3398 0.703125 67.2695 0.703125C69.168 0.703125 70.6641 1.35156 71.7578 2.64844C72.8516 3.9375 73.4062 5.75 73.4219 8.08594V11.0039ZM69.9648 8.14453C69.9648 6.60547 69.7461 5.46094 69.3086 4.71094C68.8711 3.96094 68.1914 3.58594 67.2695 3.58594C66.3555 3.58594 65.6797 3.94922 65.2422 4.67578C64.8047 5.39453 64.5781 6.49219 64.5625 7.96875V11.0039C64.5625 12.4961 64.7852 13.5977 65.2305 14.3086C65.6758 15.0117 66.3633 15.3633 67.293 15.3633C68.1914 15.3633 68.8594 15.0195 69.2969 14.332C69.7344 13.6367 69.957 12.5625 69.9648 11.1094V8.14453ZM75.8945 18V0.9375H81.168C82.9492 0.9375 84.3008 1.33594 85.2227 2.13281C86.1523 2.92188 86.6172 4.08203 86.6172 5.61328C86.6172 6.48047 86.4258 7.22656 86.043 7.85156C85.6602 8.47656 85.1367 8.93359 84.4727 9.22266C85.2383 9.44141 85.8281 9.88281 86.2422 10.5469C86.6562 11.2031 86.8633 12.0156 86.8633 12.9844C86.8633 14.6406 86.4062 15.8906 85.4922 16.7344C84.5859 17.5781 83.2695 18 81.543 18H75.8945ZM79.3398 10.582V15.1406H81.543C82.1602 15.1406 82.6289 14.9492 82.9492 14.5664C83.2695 14.1836 83.4297 13.6406 83.4297 12.9375C83.4297 11.4062 82.875 10.6211 81.7656 10.582H79.3398ZM79.3398 8.07422H81.1328C82.4844 8.07422 83.1602 7.375 83.1602 5.97656C83.1602 5.20312 83.0039 4.64844 82.6914 4.3125C82.3789 3.97656 81.8711 3.80859 81.168 3.80859H79.3398V8.07422Z" fill="#F2F2F2"/>
</svg>
