<svg width="25" height="25" viewBox="0 0 19 18" fill="none" xmlns="http://www.w3.org/2000/svg">
<path d="M9.91099 0.101196C4.93786 0.101196 0.90625 4.09082 0.90625 9.01216C0.90625 13.426 4.15264 17.0814 8.40918 17.7893V10.8712H6.23698V8.3817H8.40918V6.54602C8.40918 4.4161 9.72376 3.25542 11.6441 3.25542C12.5638 3.25542 13.3542 3.32323 13.5836 3.3531V5.57944L12.2517 5.58008C11.2076 5.58008 11.0063 6.07097 11.0063 6.79157V8.38043H13.4977L13.1727 10.87H11.0063V17.8488C15.4616 17.3122 18.9156 13.5637 18.9156 9.00961C18.9156 4.09082 14.884 0.101196 9.91099 0.101196Z" fill="#001228"/>
</svg>
