<svg width="25" height="25" viewBox="0 0 18 18" fill="none" xmlns="http://www.w3.org/2000/svg">
<path d="M0 9C0 4.02944 4.02944 0 9 0V0C13.9706 0 18 4.02944 18 9V9C18 13.9706 13.9706 18 9 18V18C4.02944 18 0 13.9706 0 9V9Z" fill="black"/>
<g clip-path="url(#clip0_248_95)">
<path fill-rule="evenodd" clip-rule="evenodd" d="M4.43463 5.12297C4.20007 5.57451 4.20007 6.16773 4.20007 7.35417V10.6458C4.20007 11.8323 4.20007 12.4255 4.43463 12.877C4.63229 13.2575 4.94254 13.5678 5.32304 13.7654C5.77458 14 6.3678 14 7.55424 14H10.8459C12.0323 14 12.6256 14 13.0771 13.7654C13.4576 13.5678 13.7679 13.2575 13.9655 12.877C14.2001 12.4255 14.2001 11.8323 14.2001 10.6458V7.35417C14.2001 6.16773 14.2001 5.57451 13.9655 5.12297C13.7679 4.74246 13.4576 4.43221 13.0771 4.23456C12.6256 4 12.0323 4 10.8459 4H7.55424C6.3678 4 5.77458 4 5.32304 4.23456C4.94254 4.43221 4.63229 4.74246 4.43463 5.12297ZM5.81522 8.66085L11.8357 6.33874C12.1107 6.21394 12.3761 6.40483 12.2711 6.82567L11.2459 11.657C11.1743 12.0004 10.9668 12.0825 10.6794 11.9239L9.11749 10.77L9.08844 10.7982C8.73345 11.1434 8.42065 11.4475 8.36678 11.5002L8.36102 11.5058C8.27665 11.5883 8.20699 11.6564 8.05422 11.6564C7.89564 11.6564 7.88241 11.6095 7.85054 11.4965C7.84173 11.4653 7.83149 11.4289 7.81636 11.3872L7.24184 9.62575L5.74032 9.15709C5.40675 9.0549 5.40431 8.82571 5.81522 8.66085ZM10.8619 7.38281L7.47749 9.51808L8.04781 11.2665L8.16064 10.063L11.0586 7.44834C11.1858 7.33544 11.0309 7.28035 10.8619 7.38281Z" fill="white"/>
</g>
<defs>
<clipPath id="clip0_248_95">
<rect width="10" height="10" fill="white" transform="translate(4.20007 4)"/>
</clipPath>
</defs>
</svg>
