<svg width="25" height="25" viewBox="0 0 19 18" fill="none" xmlns="http://www.w3.org/2000/svg">
<path d="M11.6344 9.0579C11.6344 9.9999 10.8627 10.7635 9.91081 10.7635C8.9589 10.7635 8.18726 9.9999 8.18726 9.0579C8.18726 8.1159 8.9589 7.35229 9.91081 7.35229C10.8627 7.35229 11.6344 8.1159 11.6344 9.0579Z" fill="#001228"/>
<path d="M13.9417 6.04013C13.8589 5.81795 13.7267 5.61685 13.5549 5.45179C13.3881 5.28182 13.1851 5.15102 12.9604 5.06903C12.7782 4.99901 12.5045 4.91566 12.0004 4.89295C11.455 4.86834 11.2915 4.86304 9.91095 4.86304C8.53021 4.86304 8.36671 4.8682 7.8215 4.89281C7.31738 4.91566 7.04354 4.99901 6.86149 5.06903C6.63684 5.15102 6.43362 5.28182 6.26696 5.45179C6.0952 5.61685 5.96303 5.81782 5.88004 6.04013C5.80928 6.22042 5.72505 6.49141 5.7021 6.99028C5.67723 7.52981 5.67188 7.69162 5.67188 9.05798C5.67188 10.4242 5.67723 10.586 5.7021 11.1257C5.72505 11.6245 5.80928 11.8954 5.88004 12.0757C5.96303 12.298 6.09507 12.499 6.26682 12.664C6.43362 12.834 6.6367 12.9648 6.86135 13.0468C7.04354 13.1169 7.31738 13.2003 7.8215 13.223C8.36671 13.2476 8.53007 13.2528 9.91081 13.2528C11.2917 13.2528 11.4552 13.2476 12.0003 13.223C12.5044 13.2003 12.7782 13.1169 12.9604 13.0468C13.4114 12.8746 13.7678 12.5219 13.9417 12.0757C14.0125 11.8954 14.0967 11.6245 14.1198 11.1257C14.1447 10.586 14.1499 10.4242 14.1499 9.05798C14.1499 7.69162 14.1447 7.52981 14.1198 6.99028C14.0968 6.49141 14.0126 6.22042 13.9417 6.04013ZM9.91095 11.6853C8.44447 11.6853 7.25569 10.509 7.25569 9.05784C7.25569 7.60664 8.44447 6.43036 9.91095 6.43036C11.3773 6.43036 12.5661 7.60664 12.5661 9.05784C12.5661 10.509 11.3773 11.6853 9.91095 11.6853ZM12.671 6.94052C12.3284 6.94052 12.0505 6.66559 12.0505 6.32648C12.0505 5.98737 12.3284 5.71244 12.671 5.71244C13.0137 5.71244 13.2915 5.98737 13.2915 6.32648C13.2914 6.66559 13.0137 6.94052 12.671 6.94052Z" fill="#001228"/>
<path d="M9.91091 0.146973C4.93853 0.146973 0.90625 4.13728 0.90625 9.05789C0.90625 13.9785 4.93853 17.9688 9.91091 17.9688C14.8833 17.9688 18.9156 13.9785 18.9156 9.05789C18.9156 4.13728 14.8833 0.146973 9.91091 0.146973ZM15.0504 11.1675C15.0254 11.7122 14.9378 12.084 14.81 12.4095C14.5414 13.0969 13.9924 13.6402 13.2978 13.906C12.969 14.0325 12.5931 14.119 12.0428 14.1438C11.4914 14.1687 11.3153 14.1747 9.91104 14.1747C8.50668 14.1747 8.33067 14.1687 7.77914 14.1438C7.22886 14.119 6.85293 14.0325 6.52413 13.906C6.17898 13.7775 5.86653 13.5762 5.60822 13.3158C5.34524 13.0603 5.14175 12.751 5.0119 12.4095C4.88412 12.0842 4.7966 11.7121 4.77159 11.1676C4.74617 10.6218 4.74026 10.4475 4.74026 9.05789C4.74026 7.66827 4.74617 7.49396 4.77145 6.94831C4.79646 6.40362 4.88385 6.03174 5.01163 5.70623C5.14147 5.36481 5.3451 5.05548 5.60822 4.79999C5.8664 4.53961 6.17898 4.33824 6.52399 4.20975C6.85293 4.0833 7.22872 3.99682 7.77914 3.97194C8.33053 3.94705 8.50668 3.94107 9.91091 3.94107C11.3151 3.94107 11.4913 3.94705 12.0427 3.97207C12.5931 3.99682 12.9689 4.0833 13.2978 4.20961C13.6428 4.3381 13.9554 4.53961 14.2137 4.79999C14.4767 5.05562 14.6803 5.36481 14.81 5.70623C14.938 6.03174 15.0254 6.40362 15.0505 6.94831C15.0756 7.49396 15.0815 7.66827 15.0815 9.05789C15.0815 10.4475 15.0756 10.6218 15.0504 11.1675Z" fill="#001228"/>
</svg>
